<svg xmlns="http://www.w3.org/2000/svg" viewBox="0 0 105.79 132.16"><defs><style>.cls-1{fill:#b3b3b3;}</style></defs><g id="圖層_2" data-name="圖層 2"><g id="圖層_1-2" data-name="圖層 1"><path class="cls-1" d="M0,11.83H11.82V120.26H0Z"/><path class="cls-1" d="M88.14,107.24H52.33V93.16H88.14Z"/><path d="M105.79,132.16H92L64.63,61.42l1.79-2.36H89.78V10.43H56.16V132.16H43.07V.05H92.42A10.88,10.88,0,0,1,100,2.66a8.69,8.69,0,0,1,2.92,6.76V59.56q0,9.54-14.32,9.54-1.41,0-4.14-.12c-1.82-.09-3.14-.13-4-.13Q93.17,100.43,105.79,132.16Z"/><path d="M.16,89.23H12v32.5H41.35V10.38H12V40.1H.16V9.37a9,9,0,0,1,2.7-6.75A9.41,9.41,0,0,1,9.7,0h34a9,9,0,0,1,9.37,9.37V122.75a9,9,0,0,1-9.37,9.37H9.7a9.41,9.41,0,0,1-6.84-2.62,9,9,0,0,1-2.7-6.75Z"/></g></g></svg>